<svg width="161" height="79" viewBox="0 0 161 79" fill="none" xmlns="http://www.w3.org/2000/svg">
<path d="M57.96 27.69C59.2827 27.3593 61.0393 27.008 63.23 26.636C65.4207 26.264 67.942 26.078 70.794 26.078C73.3567 26.078 75.4853 26.45 77.18 27.194C78.8747 27.8967 80.218 28.9093 81.21 30.232C82.2433 31.5133 82.9667 33.0633 83.38 34.882C83.7933 36.7007 84 38.7053 84 40.896V59H78.234V42.136C78.234 40.152 78.0893 38.4573 77.8 37.052C77.552 35.6467 77.118 34.51 76.498 33.642C75.878 32.774 75.0513 32.154 74.018 31.782C72.9847 31.3687 71.7033 31.162 70.174 31.162C69.554 31.162 68.9133 31.1827 68.252 31.224C67.5907 31.2653 66.95 31.3273 66.33 31.41C65.7513 31.4513 65.214 31.5133 64.718 31.596C64.2633 31.6787 63.9327 31.7407 63.726 31.782V59H57.96V27.69ZM103.234 59.62C99.6789 59.5373 97.1576 58.7727 95.6696 57.326C94.1816 55.8793 93.4376 53.6267 93.4376 50.568V11.88L99.2036 10.888V49.638C99.2036 50.5887 99.2862 51.374 99.4516 51.994C99.6169 52.614 99.8856 53.11 100.258 53.482C100.63 53.854 101.126 54.1433 101.746 54.35C102.366 54.5153 103.13 54.66 104.04 54.784L103.234 59.62Z" fill="#1B0E28"/>
<path d="M42 61L24 43L42 25L46.2 29.2L32.4 43L46.2 56.8L42 61Z" fill="#1B0E28"/>
<path d="M119 25L137 43L119 61L114.8 56.8L128.6 43L114.8 29.2L119 25Z" fill="#1B0E28"/>
</svg>
